<svg xmlns="http://www.w3.org/2000/svg" viewBox="0 0 12 14"><defs><style>.cls-1{fill:#7289da;}.cls-2{fill:#f9f4f5;}</style></defs><g id="Camada_2" data-name="Camada 2"><g id="Camada_1-2" data-name="Camada 1"><path class="cls-1" d="M5.77,12a5,5,0,0,0,.48-1A11.43,11.43,0,0,0,5,12Z"/><path class="cls-1" d="M6,9c-1-1-3,1-4,1-.67.67,0,1.33.52,2H5a11.43,11.43,0,0,1,1.25-1A1.88,1.88,0,0,0,6,9Z"/><path class="cls-1" d="M8.13,12H10C9.21,11.21,8.43,11.06,8.13,12Z"/><path class="cls-1" d="M0,0V12H2.23c-.62-1-1-2.27-.23-3C4,7,7,7,8,9c0,.66-.87,1.32-1.75,2a5,5,0,0,1-.48,1H8.13c.3-.94,1.08-.79,1.87,0h2V0Z"/><path class="cls-1" d="M8,9C7,7,4,7,2,9c-.73.73-.39,2,.23,3h.29C2,11.33,1.33,10.67,2,10c1,0,3-2,4-1a1.88,1.88,0,0,1,.25,2C7.13,10.32,8,9.66,8,9Z"/><polyline class="cls-1" points="11 14 12 12 10 12"/><g id="Camada_2-2" data-name="Camada 2"><g id="Camada_1-2-2" data-name="Camada 1-2"><polygon class="cls-2" points="3 5.04 3.67 1.45 7.34 1.17 5.53 8 8.84 8 5.05 9.26 3 4.96 3 5.04"/><polygon class="cls-2" points="1.72 9 2.31 5.96 3.69 9 1.72 9"/><polygon class="cls-2" points="6.34 10 9.78 10 10.01 8 9.06 8 6.34 10"/></g></g></g></g></svg>